# xmcd CD database file
#
# Track frame offsets:
#	150
#	10199
#	20772
#	36945
#	53194
#	71039
#	84220
#	102215
#	118540
#	139219
#	149874
#	163905
#	179266
#	196657
#	212198
#
# Disc length: 2985 seconds
#
# Revision: 0
# Processed by: cddbd v1.5.2PL0 Copyright (c) Steve Scherf et al.
# Submitted via: CDex 1.51
#
DISCID=db0ba70f
DTITLE=Jazz Band of Shanghai Paramount - Jazz of Paramount_Vol 1
DYEAR=1994
DGENRE=Jazz
TTITLE0=Chattanooga choo choo
TTITLE1=Caldonia-Boogie woogie
TTITLE2=American patrol
TTITLE3=One day when we were young
TTITLE4=I am dreaming of a white X'mas
TTITLE5=Sibony
TTITLE6=The sound of music
TTITLE7=My bonnie
TTITLE8=Harbour light
TTITLE9=Blue moon
TTITLE10=I'm always chasing rainbow
TTITLE11=Cielito lindo
TTITLE12=Caravan
TTITLE13=St.Louis blues
TTITLE14=Pennsylvania - 65000
EXTD=YEAR: 1994
EXTT0=
EXTT1=
EXTT2=
EXTT3=
EXTT4=
EXTT5=
EXTT6=
EXTT7=
EXTT8=
EXTT9=
EXTT10=
EXTT11=
EXTT12=
EXTT13=
EXTT14=
PLAYORDER=
